<svg id="svg" version="1.1" xmlns="http://www.w3.org/2000/svg" xmlns:xlink="http://www.w3.org/1999/xlink" width="400" height="400" viewBox="0, 0, 400,400"><g id="svgg"><path id="path0" d="M267.417 154.779 C 266.867 155.475,266.342 156.129,266.250 156.231 C 266.158 156.334,265.722 156.867,265.280 157.417 C 264.232 158.721,263.458 159.666,263.250 159.898 C 263.158 160.000,262.333 161.019,261.417 162.162 C 260.500 163.306,259.625 164.394,259.472 164.579 C 259.320 164.765,258.920 165.254,258.584 165.667 C 257.117 167.468,256.908 167.722,256.748 167.898 C 256.655 168.000,256.169 168.608,255.669 169.250 C 255.168 169.892,254.716 170.454,254.665 170.500 C 254.614 170.546,254.275 170.956,253.911 171.412 C 252.973 172.588,252.619 173.018,252.333 173.331 C 252.196 173.481,251.671 174.087,251.167 174.677 C 250.130 175.890,249.494 176.627,249.250 176.898 C 248.928 177.256,246.883 179.590,246.403 180.148 C 246.135 180.459,245.842 180.797,245.750 180.900 C 245.658 181.003,245.058 181.687,244.417 182.419 C 243.775 183.151,243.175 183.832,243.083 183.933 C 242.992 184.034,242.553 184.540,242.108 185.058 L 241.299 186.000 237.228 186.000 L 233.158 186.000 223.287 195.959 C 217.858 201.436,212.145 207.211,210.590 208.792 L 207.763 211.667 212.579 211.667 L 217.396 211.667 218.406 212.452 C 218.962 212.884,219.454 213.279,219.500 213.331 C 219.546 213.382,220.108 213.834,220.750 214.333 C 221.392 214.833,221.954 215.281,222.000 215.330 C 222.046 215.378,223.021 216.167,224.167 217.083 C 225.313 218.000,226.287 218.789,226.333 218.837 C 226.379 218.885,226.942 219.335,227.583 219.836 C 228.225 220.337,228.876 220.861,229.029 220.999 C 229.183 221.137,229.761 221.588,230.314 222.000 C 230.867 222.412,231.323 222.811,231.327 222.885 C 231.335 223.053,231.757 223.322,226.631 219.887 C 221.675 216.565,222.002 216.728,219.674 216.404 C 218.707 216.270,217.129 216.044,216.167 215.904 C 212.766 215.407,211.230 215.183,209.417 214.919 C 208.408 214.772,206.833 214.538,205.917 214.399 C 205.000 214.260,203.853 214.103,203.367 214.052 C 202.529 213.962,202.436 213.902,201.534 212.867 C 201.011 212.267,200.471 211.655,200.333 211.507 C 200.196 211.359,199.671 210.753,199.168 210.161 C 198.664 209.568,198.211 209.046,198.161 209.000 C 198.083 208.930,194.668 204.979,193.551 203.667 C 191.467 201.221,190.764 200.404,190.680 200.333 C 190.626 200.287,190.170 199.762,189.667 199.167 C 189.164 198.571,188.713 198.046,188.666 198.000 C 188.480 197.821,185.339 194.166,184.083 192.667 C 183.353 191.796,182.679 190.999,182.586 190.896 C 182.493 190.793,182.117 190.346,181.750 189.902 C 181.383 189.458,180.816 188.792,180.489 188.423 C 180.162 188.053,178.737 186.363,177.322 184.667 C 174.933 181.803,174.175 180.905,173.749 180.435 C 173.657 180.333,172.609 179.088,171.420 177.667 C 170.231 176.246,169.181 174.999,169.087 174.896 C 168.993 174.793,168.617 174.350,168.250 173.910 C 167.883 173.471,167.096 172.542,166.500 171.844 C 165.904 171.147,165.215 170.334,164.969 170.038 C 164.404 169.358,164.318 169.364,163.663 170.125 C 163.367 170.469,161.578 172.330,159.687 174.261 C 157.797 176.193,153.964 180.130,151.170 183.011 C 145.982 188.361,143.992 190.408,140.219 194.275 L 138.081 196.468 136.915 195.656 C 136.274 195.209,135.610 194.748,135.439 194.630 C 135.268 194.513,134.943 194.275,134.716 194.101 C 134.307 193.788,134.301 193.789,133.943 194.189 C 132.928 195.326,132.148 196.207,131.167 197.324 C 130.571 198.002,129.971 198.679,129.833 198.829 C 129.696 198.978,129.058 199.696,128.417 200.425 C 126.991 202.043,126.164 202.972,125.833 203.327 C 125.696 203.474,125.171 204.077,124.667 204.667 C 124.162 205.256,123.638 205.859,123.500 206.006 C 123.169 206.361,122.342 207.290,120.917 208.909 C 120.275 209.637,119.638 210.355,119.500 210.505 C 118.972 211.078,117.189 213.110,116.730 213.660 C 116.466 213.977,116.063 214.433,115.833 214.674 C 115.604 214.916,115.197 215.369,114.928 215.681 C 114.335 216.371,112.347 218.628,112.000 219.005 C 111.862 219.154,111.263 219.831,110.667 220.510 C 109.695 221.615,108.538 222.923,108.083 223.429 C 106.384 225.321,105.726 226.077,105.617 226.268 C 105.408 226.631,105.248 226.570,103.305 225.400 C 102.300 224.794,101.452 224.326,101.420 224.358 C 101.387 224.390,96.052 229.667,89.563 236.083 C 64.664 260.707,61.069 264.390,62.961 263.339 C 63.120 263.251,63.625 263.020,64.083 262.827 C 65.695 262.148,66.125 261.962,67.712 261.260 C 68.242 261.026,69.142 260.642,69.712 260.407 C 70.283 260.172,70.975 259.877,71.250 259.752 C 71.525 259.626,74.553 258.316,77.979 256.840 C 81.405 255.364,84.517 254.019,84.896 253.852 C 85.274 253.685,86.002 253.379,86.513 253.172 C 87.216 252.887,93.768 248.253,95.417 246.875 C 95.508 246.798,95.844 246.551,96.162 246.326 C 96.481 246.101,96.828 245.842,96.933 245.750 C 97.039 245.658,97.291 245.471,97.493 245.333 C 97.695 245.196,99.806 243.639,102.184 241.874 C 107.042 238.267,106.120 238.690,110.459 238.078 C 112.106 237.846,113.400 237.661,117.500 237.073 C 118.554 236.922,120.092 236.712,120.917 236.608 L 122.417 236.417 122.461 231.475 C 122.501 226.964,122.530 226.524,122.794 226.421 C 122.953 226.358,123.683 226.193,124.417 226.054 C 125.150 225.915,126.237 225.703,126.833 225.583 C 127.429 225.463,128.554 225.238,129.333 225.083 C 132.475 224.459,132.939 224.365,133.467 224.246 C 133.947 224.137,134.216 223.820,135.569 221.769 C 143.421 209.866,143.458 209.812,143.546 210.290 C 143.619 210.690,143.879 211.696,144.914 215.583 C 145.166 216.529,146.116 220.147,146.322 220.943 C 146.397 221.232,146.546 221.570,146.653 221.693 C 146.761 221.816,147.217 222.442,147.666 223.083 C 148.986 224.967,150.296 226.833,151.176 228.083 C 151.627 228.725,152.075 229.362,152.171 229.500 C 153.648 231.610,155.540 234.318,155.705 234.557 C 155.821 234.726,156.029 235.001,156.167 235.168 C 156.304 235.335,156.513 235.609,156.631 235.778 C 156.895 236.154,156.825 235.438,156.408 233.500 C 155.834 230.834,155.693 230.167,155.170 227.667 C 154.305 223.534,153.742 220.883,153.399 219.333 C 152.785 216.561,152.743 215.928,153.137 215.375 C 153.337 215.095,153.500 214.822,153.500 214.769 C 153.500 214.716,153.787 214.202,154.137 213.628 C 154.488 213.053,155.001 212.171,155.278 211.667 C 155.556 211.162,156.664 209.221,157.741 207.351 C 158.818 205.482,159.850 203.682,160.034 203.351 C 160.217 203.021,160.735 202.140,161.184 201.394 C 161.633 200.647,162.000 199.994,162.000 199.941 C 162.000 199.888,162.210 199.513,162.467 199.108 L 162.934 198.372 163.509 198.658 C 163.825 198.815,165.096 199.544,166.333 200.277 C 167.571 201.011,168.733 201.694,168.917 201.797 C 169.100 201.899,170.487 202.711,172.000 203.602 C 173.512 204.493,175.088 205.398,175.501 205.614 C 175.981 205.864,176.461 206.312,176.833 206.857 C 177.153 207.326,177.545 207.869,177.704 208.063 C 178.145 208.602,178.206 208.683,178.898 209.654 C 179.252 210.151,179.609 210.639,179.693 210.738 C 179.776 210.836,181.183 212.717,182.819 214.917 C 185.434 218.433,185.882 218.955,186.522 219.236 C 186.922 219.412,188.225 220.020,189.417 220.589 C 192.501 222.060,193.917 222.727,195.250 223.334 C 195.892 223.626,197.054 224.165,197.833 224.531 C 199.560 225.342,200.344 225.699,201.367 226.138 L 202.150 226.474 202.950 226.078 C 203.390 225.860,204.125 225.524,204.583 225.332 C 205.042 225.139,205.567 224.913,205.750 224.829 C 205.933 224.745,206.496 224.522,207.000 224.333 C 207.504 224.145,208.067 223.919,208.250 223.831 C 208.433 223.744,209.296 223.407,210.167 223.083 C 211.037 222.759,211.900 222.421,212.083 222.332 C 212.267 222.243,212.936 221.977,213.570 221.742 L 214.724 221.315 222.153 223.756 C 226.240 225.099,229.698 226.256,229.839 226.328 C 229.979 226.399,230.354 226.513,230.672 226.581 C 230.990 226.649,231.325 226.763,231.417 226.833 C 231.508 226.904,231.846 227.016,232.167 227.083 C 232.487 227.150,232.825 227.263,232.917 227.333 C 233.008 227.404,233.346 227.516,233.667 227.583 C 233.987 227.650,234.325 227.763,234.417 227.833 C 234.508 227.904,234.846 228.016,235.167 228.083 C 235.487 228.150,235.825 228.263,235.917 228.333 C 236.008 228.404,236.346 228.516,236.667 228.583 C 236.987 228.650,237.325 228.763,237.417 228.833 C 237.508 228.904,237.846 229.016,238.167 229.083 C 238.487 229.150,238.825 229.261,238.917 229.329 C 239.107 229.469,240.684 229.874,240.752 229.799 C 240.776 229.772,240.124 228.850,239.301 227.750 C 238.479 226.650,237.351 225.112,236.795 224.333 C 236.239 223.554,235.735 222.879,235.676 222.833 C 235.616 222.787,235.387 222.487,235.166 222.167 C 234.945 221.846,233.454 219.821,231.853 217.667 C 230.251 215.512,228.568 213.225,228.112 212.583 C 227.656 211.942,227.237 211.379,227.182 211.333 C 227.005 211.187,225.333 208.830,225.333 208.727 C 225.333 208.672,225.465 208.668,225.625 208.717 C 226.576 209.008,228.936 209.663,229.042 209.665 C 229.110 209.666,229.167 207.417,229.167 204.667 L 229.167 199.667 230.292 199.659 C 230.910 199.656,232.617 199.584,234.083 199.500 C 235.550 199.417,238.248 199.266,240.079 199.165 C 241.910 199.065,243.447 198.925,243.496 198.855 C 243.544 198.785,244.558 197.987,245.750 197.081 C 246.942 196.175,247.954 195.388,248.000 195.331 C 248.046 195.274,248.908 194.596,249.917 193.823 C 250.925 193.050,251.929 192.267,252.147 192.084 C 252.365 191.900,254.211 189.253,256.249 186.201 C 260.514 179.815,260.015 180.047,260.429 184.250 C 260.564 185.625,260.783 187.800,260.915 189.083 C 261.048 190.367,261.239 192.241,261.341 193.249 C 261.443 194.257,261.554 195.109,261.587 195.143 C 261.650 195.205,262.846 194.520,263.000 194.333 C 263.046 194.278,263.383 194.053,263.750 193.833 C 264.117 193.614,264.454 193.389,264.500 193.333 C 264.546 193.278,264.883 193.051,265.250 192.830 C 265.617 192.608,265.992 192.366,266.083 192.290 C 266.175 192.215,267.105 191.594,268.149 190.910 L 270.048 189.667 273.691 189.667 C 275.694 189.667,277.333 189.724,277.333 189.794 C 277.333 189.864,277.481 189.995,277.661 190.085 C 278.303 190.408,280.420 191.733,280.637 191.948 C 280.758 192.068,280.932 192.167,281.024 192.167 C 281.115 192.167,281.291 192.260,281.415 192.375 C 281.538 192.490,282.547 193.146,283.656 193.833 C 284.766 194.521,286.571 195.646,287.667 196.333 C 288.763 197.021,290.569 198.146,291.681 198.833 C 292.792 199.521,296.237 201.974,299.335 204.285 L 304.968 208.486 304.807 209.118 C 304.718 209.466,304.543 210.162,304.418 210.667 C 304.292 211.171,303.840 212.933,303.413 214.583 C 302.986 216.233,302.535 217.996,302.410 218.500 C 301.916 220.501,301.672 221.460,301.413 222.417 C 300.408 226.129,300.338 226.612,300.855 226.280 C 301.072 226.141,302.487 225.234,304.000 224.265 C 305.512 223.296,306.862 222.426,307.000 222.332 C 307.137 222.237,308.128 221.599,309.202 220.913 L 311.154 219.665 311.702 220.223 C 312.003 220.529,312.662 221.225,313.167 221.769 C 314.649 223.369,318.361 227.333,319.083 228.087 C 319.450 228.470,320.162 229.228,320.667 229.771 C 325.916 235.425,328.305 237.918,328.390 237.828 C 328.462 237.753,328.134 237.032,326.113 232.813 C 325.603 231.747,324.852 230.172,324.445 229.313 C 323.737 227.819,322.926 226.116,321.001 222.083 C 320.519 221.075,319.843 219.650,319.497 218.917 C 319.151 218.183,318.421 216.646,317.874 215.500 C 315.724 210.998,315.338 210.189,314.539 208.500 C 314.083 207.537,313.392 206.075,313.002 205.250 C 309.855 198.578,309.806 198.494,308.492 197.433 C 307.821 196.892,305.355 194.915,303.011 193.039 C 300.668 191.164,298.675 189.538,298.583 189.426 C 298.253 189.020,297.071 187.595,296.500 186.913 C 296.179 186.529,295.617 185.854,295.250 185.411 C 294.883 184.969,294.321 184.294,294.000 183.911 C 293.333 183.116,292.421 182.016,291.727 181.169 C 291.464 180.849,291.100 180.405,290.917 180.182 C 290.733 179.959,290.471 179.655,290.333 179.506 C 290.196 179.358,289.783 178.864,289.417 178.410 C 288.489 177.258,288.123 176.819,287.833 176.506 C 287.696 176.358,287.283 175.864,286.917 175.410 C 285.989 174.258,285.623 173.819,285.333 173.506 C 285.196 173.358,284.783 172.864,284.417 172.410 C 284.050 171.955,283.625 171.433,283.471 171.250 C 283.317 171.067,281.446 168.817,279.312 166.250 C 277.179 163.683,275.355 161.498,275.259 161.393 C 275.162 161.288,273.658 159.474,271.917 157.360 C 270.175 155.247,268.675 153.517,268.583 153.515 C 268.492 153.513,267.967 154.082,267.417 154.779 " stroke="none" fill="#6c6c74" fill-rule="evenodd"></path><path id="path1" d="M210.996 83.060 C 210.951 83.105,209.977 83.227,208.832 83.331 C 204.842 83.693,200.278 84.567,195.750 85.837 C 194.629 86.151,190.616 87.508,190.058 87.761 C 189.769 87.893,189.450 88.000,189.348 88.000 C 189.246 88.000,189.032 88.072,188.873 88.161 C 188.714 88.249,188.208 88.478,187.750 88.670 C 186.425 89.224,186.373 89.248,183.833 90.487 C 180.728 92.003,176.648 94.275,176.333 94.665 C 176.287 94.721,175.950 94.947,175.583 95.167 C 175.217 95.386,174.879 95.607,174.833 95.658 C 174.787 95.709,174.150 96.160,173.417 96.660 C 172.159 97.519,171.950 97.671,171.453 98.085 C 171.341 98.178,170.725 98.664,170.083 99.165 C 169.442 99.666,168.879 100.115,168.833 100.163 C 168.787 100.211,168.262 100.660,167.667 101.161 C 166.482 102.157,162.006 106.581,160.823 107.924 C 160.416 108.386,159.854 109.025,159.574 109.342 C 157.894 111.248,152.718 118.531,152.383 119.463 C 152.326 119.621,152.151 119.938,151.995 120.167 C 151.195 121.342,148.003 127.707,147.999 128.135 C 147.998 128.198,147.901 128.438,147.783 128.667 C 147.664 128.896,147.390 129.571,147.173 130.167 C 146.956 130.762,146.732 131.325,146.673 131.417 C 146.615 131.508,146.279 132.483,145.926 133.583 C 145.573 134.683,145.227 135.733,145.157 135.917 C 145.086 136.100,144.943 136.587,144.838 137.000 C 144.733 137.412,144.498 138.313,144.315 139.000 C 143.970 140.295,143.849 140.834,143.398 143.083 C 141.171 154.188,141.733 167.154,144.909 177.958 C 145.051 178.440,145.270 179.198,145.396 179.644 C 145.780 181.005,145.861 181.080,146.373 180.544 C 146.776 180.122,146.800 180.021,146.661 179.333 C 146.029 176.200,145.886 169.737,146.338 164.750 C 146.777 159.903,147.592 154.953,148.340 152.583 C 148.427 152.308,148.731 151.296,149.015 150.333 C 149.766 147.792,150.697 145.078,151.158 144.083 C 151.697 142.919,152.333 141.464,152.333 141.394 C 152.333 141.272,154.470 136.989,154.640 136.770 C 154.720 136.667,155.051 136.092,155.377 135.491 C 156.286 133.816,159.339 129.144,160.089 128.281 C 160.183 128.172,160.778 127.418,161.411 126.604 C 163.903 123.397,167.439 119.753,171.148 116.568 C 171.459 116.302,171.796 116.005,171.898 115.909 C 174.687 113.285,183.939 107.623,188.333 105.852 C 188.838 105.648,189.400 105.413,189.583 105.329 C 189.767 105.245,190.329 105.022,190.833 104.833 C 191.338 104.645,191.900 104.423,192.083 104.340 C 192.484 104.159,195.149 103.265,196.083 102.999 C 196.450 102.895,197.125 102.696,197.583 102.558 C 207.340 99.623,220.625 99.176,231.000 101.434 C 234.364 102.167,237.613 103.093,240.667 104.192 C 241.446 104.472,242.233 104.764,242.417 104.842 C 242.990 105.083,244.401 105.678,244.750 105.826 C 245.518 106.152,249.988 108.370,250.833 108.845 C 252.849 109.978,253.335 110.278,255.500 111.720 C 257.475 113.035,260.261 115.046,260.500 115.330 C 260.546 115.384,260.808 115.601,261.083 115.812 C 263.477 117.648,269.352 123.523,271.188 125.917 C 271.399 126.192,271.616 126.454,271.670 126.500 C 272.221 126.965,275.798 132.153,277.359 134.750 C 278.621 136.849,281.532 142.764,281.913 144.001 C 281.983 144.230,282.098 144.492,282.167 144.583 C 282.330 144.798,284.260 150.513,284.503 151.500 C 284.605 151.912,284.801 152.700,284.938 153.250 C 285.973 157.380,286.577 161.203,286.892 165.604 L 287.083 168.292 287.750 169.080 C 288.117 169.512,288.556 170.028,288.726 170.225 C 288.896 170.422,289.178 170.764,289.353 170.984 C 289.851 171.610,289.878 171.531,290.414 167.833 C 291.225 162.248,291.346 153.283,290.672 148.833 C 290.581 148.237,290.428 147.188,290.332 146.500 C 289.878 143.275,288.802 138.276,288.178 136.500 C 288.097 136.271,287.752 135.183,287.410 134.083 C 287.069 132.983,286.724 132.012,286.645 131.925 C 286.565 131.838,286.500 131.662,286.500 131.534 C 286.500 131.405,286.396 131.064,286.269 130.775 C 286.142 130.486,285.650 129.326,285.176 128.197 C 282.789 122.522,278.520 115.313,275.139 111.250 C 274.987 111.067,274.424 110.390,273.889 109.747 C 273.354 109.103,272.656 108.278,272.338 107.913 C 271.372 106.804,266.815 102.282,265.750 101.374 C 265.200 100.906,264.563 100.358,264.333 100.157 C 254.298 91.360,239.179 84.954,224.583 83.314 C 222.911 83.126,211.150 82.906,210.996 83.060 " stroke="none" fill="#f49922" fill-rule="evenodd"></path><path id="path2" d="M332.696 227.711 C 332.818 227.827,333.592 228.443,334.417 229.081 C 349.074 240.402,344.389 252.624,320.833 264.512 C 318.795 265.541,314.701 267.500,314.590 267.500 C 314.553 267.500,314.012 267.730,313.387 268.011 C 312.761 268.291,312.100 268.588,311.917 268.669 C 311.733 268.750,310.908 269.086,310.083 269.414 C 309.258 269.743,308.433 270.083,308.250 270.170 C 308.067 270.257,307.204 270.594,306.333 270.920 C 305.462 271.245,304.514 271.621,304.225 271.756 C 303.936 271.890,303.616 272.000,303.514 272.000 C 303.412 272.000,303.199 272.069,303.039 272.153 C 302.880 272.237,301.962 272.582,301.000 272.920 C 300.037 273.257,299.100 273.598,298.917 273.678 C 298.501 273.859,289.796 276.750,289.000 276.972 C 288.679 277.062,287.667 277.375,286.750 277.667 C 285.833 277.960,284.746 278.297,284.333 278.417 C 283.921 278.537,282.383 278.987,280.917 279.418 C 279.450 279.849,277.875 280.303,277.417 280.428 C 276.958 280.552,276.171 280.767,275.667 280.904 C 275.162 281.042,274.337 281.267,273.833 281.404 C 271.097 282.150,267.415 283.105,264.417 283.846 C 262.950 284.208,261.487 284.578,261.167 284.668 C 260.846 284.757,259.908 284.982,259.083 285.167 C 258.258 285.351,257.321 285.572,257.000 285.657 C 256.679 285.743,255.892 285.927,255.250 286.066 C 254.608 286.206,253.408 286.475,252.583 286.665 C 250.245 287.205,249.190 287.440,247.750 287.744 C 247.017 287.899,245.967 288.124,245.417 288.244 C 244.867 288.364,243.817 288.588,243.083 288.741 C 242.350 288.894,241.450 289.089,241.083 289.173 C 240.717 289.258,239.967 289.411,239.417 289.514 C 238.867 289.617,237.929 289.799,237.333 289.918 C 232.824 290.821,226.036 292.070,220.917 292.938 C 215.671 293.828,208.764 294.890,204.833 295.413 C 198.606 296.241,196.679 296.472,192.250 296.924 C 183.785 297.788,174.620 298.094,172.022 297.599 C 168.105 296.852,167.515 295.179,169.341 290.000 C 172.049 282.322,172.106 282.130,172.578 279.127 C 173.180 275.298,172.550 271.823,170.653 268.504 C 169.646 266.743,166.824 263.704,165.250 262.685 C 164.884 262.447,164.546 262.212,164.500 262.162 C 164.106 261.733,160.846 260.352,158.833 259.762 C 151.842 257.714,139.766 257.949,125.583 260.411 C 119.990 261.381,114.691 262.502,108.958 263.925 C 107.993 264.165,107.498 264.289,105.000 264.913 C 103.760 265.223,102.608 265.530,100.333 266.156 C 99.279 266.446,98.004 266.797,97.500 266.936 C 96.996 267.074,96.233 267.277,95.805 267.386 C 95.378 267.495,94.971 267.640,94.903 267.708 C 94.834 267.777,94.643 267.833,94.478 267.833 C 94.313 267.833,93.857 267.938,93.464 268.066 C 93.071 268.194,92.188 268.462,91.500 268.662 C 90.813 268.861,90.063 269.089,89.833 269.167 C 89.604 269.245,88.854 269.472,88.167 269.673 C 87.479 269.873,86.392 270.207,85.750 270.416 C 85.108 270.625,83.683 271.077,82.583 271.420 C 79.944 272.245,71.675 274.978,71.250 275.166 C 71.067 275.247,70.354 275.500,69.667 275.728 C 68.979 275.956,67.442 276.492,66.250 276.919 C 65.058 277.346,63.633 277.846,63.083 278.030 C 62.533 278.213,61.858 278.460,61.583 278.579 C 61.308 278.697,59.208 279.488,56.917 280.335 C 54.625 281.182,52.450 282.005,52.083 282.163 C 51.717 282.321,51.275 282.501,51.101 282.563 C 50.928 282.624,50.818 282.707,50.858 282.747 C 50.924 282.813,51.492 282.730,55.417 282.081 C 57.871 281.675,60.070 281.324,61.667 281.085 C 62.538 280.955,64.000 280.733,64.917 280.591 C 98.751 275.374,137.770 273.160,146.917 275.937 C 151.602 277.359,151.512 279.614,146.538 285.516 C 143.849 288.707,141.333 292.131,141.333 292.601 C 141.333 292.713,141.277 292.831,141.208 292.861 C 141.024 292.943,140.270 294.554,139.740 296.000 C 139.264 297.296,139.214 300.872,139.652 302.287 C 141.057 306.827,147.195 312.114,153.500 314.215 C 157.933 315.692,160.803 316.185,168.711 316.827 C 171.432 317.048,178.186 317.052,181.417 316.834 C 188.010 316.389,189.080 316.309,191.333 316.088 C 198.038 315.430,204.529 314.516,212.667 313.085 C 213.354 312.964,214.404 312.783,215.000 312.682 C 215.596 312.582,216.383 312.427,216.750 312.338 C 217.117 312.250,218.429 311.979,219.667 311.735 C 223.691 310.944,224.067 310.869,225.333 310.599 C 226.021 310.452,227.071 310.220,227.667 310.083 C 228.262 309.945,229.125 309.758,229.583 309.666 C 230.042 309.575,230.867 309.392,231.417 309.261 C 231.967 309.130,233.392 308.791,234.583 308.507 C 235.775 308.224,237.012 307.919,237.333 307.829 C 237.654 307.738,238.254 307.585,238.667 307.488 C 241.402 306.846,245.389 305.807,249.500 304.665 C 251.196 304.194,252.958 303.708,253.417 303.585 C 253.875 303.462,254.625 303.249,255.083 303.113 C 255.542 302.977,257.079 302.527,258.500 302.113 C 259.921 301.699,261.833 301.122,262.750 300.831 C 264.456 300.288,265.409 300.000,266.583 299.671 C 266.950 299.568,267.400 299.422,267.583 299.346 C 267.767 299.270,270.504 298.358,273.667 297.319 C 276.829 296.281,279.867 295.267,280.417 295.067 C 280.967 294.867,282.204 294.423,283.167 294.081 C 285.725 293.172,293.833 290.164,294.417 289.907 C 294.692 289.786,295.892 289.306,297.083 288.840 C 298.275 288.373,299.400 287.921,299.583 287.834 C 299.767 287.747,300.329 287.522,300.833 287.333 C 301.337 287.145,301.900 286.922,302.083 286.838 C 302.267 286.754,302.792 286.527,303.250 286.333 C 303.708 286.140,304.233 285.914,304.417 285.832 C 304.600 285.749,305.237 285.482,305.833 285.238 C 306.429 284.994,307.217 284.660,307.583 284.494 C 307.950 284.329,308.761 283.963,309.387 283.680 C 310.012 283.398,310.549 283.167,310.580 283.167 C 310.652 283.167,313.549 281.836,316.833 280.295 C 323.825 277.014,331.293 272.897,334.080 270.788 C 334.174 270.718,335.037 270.087,336.000 269.387 C 340.088 266.413,343.636 262.890,345.794 259.663 C 346.707 258.299,348.000 255.837,348.000 255.466 C 348.000 255.338,348.071 255.162,348.157 255.075 C 348.244 254.988,348.389 254.617,348.481 254.250 C 348.573 253.883,348.728 253.283,348.825 252.917 C 351.002 244.736,345.136 235.146,333.545 227.938 C 332.800 227.475,332.315 227.345,332.696 227.711 " stroke="none" fill="#0caccc" fill-rule="evenodd"></path></g></svg>